<!--?xml version="1.0" encoding="utf-8"?-->
<!-- Generator: Adobe Illustrator 18.1.1, SVG Export Plug-In . SVG Version: 6.00 Build 0)  -->

<svg version="1.1" id="_x32_" xmlns="http://www.w3.org/2000/svg" xmlns:xlink="http://www.w3.org/1999/xlink" x="0px" y="0px" viewBox="0 0 512 512" style="width: 256px; height: 256px; opacity: 1;" xml:space="preserve">
<style type="text/css">
	.st0{fill:#4B4B4B;}
</style>
<g>
	<path class="st0" d="M493.269,186.604c-2.678-7.794-7.009-14.234-11.66-19.99c-3.512-4.306-7.249-8.251-10.969-11.988
		c-5.565-5.597-11.034-10.793-15.444-15.7c-4.442-4.875-7.714-9.422-9.334-13.151c-1.572-3.56-3.512-8.275-5.87-13.696
		c-4.106-9.51-9.43-21.186-16.599-33.374c-5.389-9.149-11.804-18.62-19.598-27.721c-11.66-13.64-26.462-26.478-45.162-35.852
		C339.95,5.75,317.434-0.024,291.084,0c-26.75-0.024-49.572,5.942-68.432,15.588c-14.144,7.217-26.061,16.43-36.02,26.454
		C171.668,57.085,161.003,73.876,153.081,89c-3.977,7.554-7.249,14.699-10.008,21.001c-2.742,6.295-4.988,11.764-6.768,15.773
		c-1.636,3.785-4.988,8.42-9.527,13.392c-3.399,3.72-7.392,7.65-11.563,11.78c-6.238,6.214-12.926,12.837-18.523,20.792
		c-2.791,3.978-5.325,8.339-7.185,13.231c-1.876,4.876-3.064,10.312-3.047,16.054c0,4.089,0.594,8.275,1.812,12.429
		c1.203,4.138,3.015,8.211,5.356,12.188c2.583,4.394,5.678,8.284,9.222,11.499c5.277,4.844,11.467,8.124,17.641,10
		c6.207,1.901,12.381,2.534,18.331,2.534c5.566,0,10.986-0.553,16.198-1.323c7.794-1.155,15.188-2.774,21.747-4.026
		c6.544-1.274,12.317-2.1,16.166-2.085c2.47-0.016,4.057,0.337,4.666,0.562l-1.282-0.464l1.299,0.464
		c0.818,0.305,1.668,0.674,2.534,1.042c0.241,0.498,0.497,1.003,0.802,1.492c7.361,11.819,10.777,24.393,10.794,37.479
		c0,14.482-4.314,29.638-13.054,44.28c-7.024,11.772-16.888,23.158-29.461,33.294c5.484,5.982,10.873,12.092,16.134,18.042
		c1.283,1.459,2.566,2.886,3.817,4.322c14.594-11.972,26.462-25.636,35.202-40.31c10.937-18.283,17.032-38.258,17.272-58.289
		c0.032-0.441,0.032-0.89,0.032-1.34c0-5.781-0.513-11.546-1.508-17.256c0.946,0.401,1.861,0.826,2.839,1.218
		c2.486,1.011,5.1,1.957,7.794,2.83c0.577,4.499,1.107,9.174,1.54,14.009v0.048c0.85,9.638,1.363,19.902,1.363,30.447
		c0,18.548-1.587,37.952-5.565,56.331c-2.951,13.752-7.249,26.976-13.087,38.875c-2.196,4.483-4.587,8.748-7.217,12.838
		l25.26,16.029c0.705-1.067,1.379-2.166,2.037-3.248c11.082-18.235,18.138-38.546,22.484-59.203
		c4.363-20.648,6.015-41.681,6.015-61.624c0-13.576-0.77-26.598-2.021-38.675c3.063,0.208,6.19,0.337,9.462,0.337
		c3.271,0,6.431-0.096,9.478-0.305c0.498,35.026,3.304,65.2,7.955,91.222c3.64,20.592,8.452,38.61,14.161,54.367
		c1.347,3.656,2.71,7.168,4.138,10.56c-2.742,2.317-5.677,4.467-8.837,6.503c-5.517,3.592-11.691,6.784-18.62,9.566
		c-9.59,3.833-18.107,5.397-26.061,5.397c-5.485,0-10.762-0.754-15.941-2.174c-2.149-0.569-4.266-1.251-6.384-2.061
		c-1.363-0.513-2.726-1.09-4.089-1.732c-5.004-2.213-9.959-5.044-14.915-8.42c-3.464-2.358-6.928-4.98-10.36-7.826
		c-2.71-2.213-5.421-4.603-8.083-7.033c-4.827-4.45-9.638-9.27-14.434-14.313c-3.769-3.946-7.521-8.051-11.275-12.213
		c-2.357-2.654-4.762-5.325-7.136-8.019c-6.607-7.505-13.279-15.115-20.047-22.468c-2.454-2.67-4.923-5.3-7.393-7.898
		c-1.154-1.187-2.31-2.374-3.464-3.52c-8.531-8.581-17.368-16.575-26.895-23.198c-9.542-6.6-19.854-11.9-31.241-14.642
		c-8.018-1.916-16.117,3.031-18.042,11.082c-1.908,8.026,3.047,16.086,11.05,18.042c5.886,1.388,11.98,4.154,18.331,8.228
		c6.656,4.25,13.535,9.96,20.512,16.631c2.918,2.758,5.821,5.709,8.772,8.772c-2.758,0.81-5.549,1.484-8.356,2.085
		c-1.251,0.289-2.518,0.513-3.801,0.746c-7.906,1.459-15.925,2.269-23.976,2.862c-7.008,0.545-14.001,0.97-20.945,1.652
		c-5.212,0.513-10.408,1.203-15.588,2.277c-7.746,1.636-15.556,4.186-22.821,8.716c-3.641,2.27-7.104,5.02-10.216,8.268
		c-3.128,3.256-5.934,6.992-8.308,11.154c-4.106,7.16-1.604,16.318,5.566,20.416c7.185,4.089,16.326,1.612,20.448-5.573
		c1.94-3.4,3.961-5.63,6.335-7.489c2.085-1.596,4.49-2.903,7.489-4.034c5.196-1.973,12.204-3.215,20.576-3.986
		c12.573-1.282,28.033-1.604,44.873-4.459c6.399-1.106,13.006-2.614,19.726-4.698c2.132-0.673,4.266-1.395,6.431-2.181
		c1.443-0.538,2.903-1.115,4.378-1.716c2.469,2.774,4.939,5.605,7.441,8.427c1.348,1.484,2.662,2.991,4.01,4.482
		c8.227,9.133,16.727,18.283,25.772,26.751c2.678,2.518,5.437,5.003,8.259,7.401c-3.063,2.044-6.303,3.969-9.719,5.734
		c-1.908,0.994-3.897,1.932-5.933,2.838c-14.546,6.342-32.332,10.175-54.4,10.175c-8.548,0-17.721-0.585-27.552-1.82
		c-8.195-1.026-15.669,4.78-16.695,12.991c-1.043,8.195,4.763,15.668,12.974,16.71c10.954,1.38,21.378,2.037,31.273,2.037
		c15.139,0,29.028-1.556,41.794-4.546c16.92-3.954,31.754-10.497,44.472-18.988c3.272-2.15,6.383-4.467,9.382-6.897
		c3.368,1.901,6.864,3.649,10.424,5.189c1.716,0.802,3.464,1.508,5.245,2.164c10.119,3.786,21.026,6.022,32.476,6.007
		c11.948,0.016,24.425-2.414,37.175-7.53c7.634-3.032,14.722-6.608,21.266-10.664c3.079-1.885,6.046-3.898,8.869-5.983
		c1.363,2.214,2.726,4.378,4.121,6.447c0.594,0.858,1.171,1.7,1.748,2.502c7.442,10.52,15.524,19.157,23.944,26.125
		c9.078,7.522,18.572,13.071,28.018,16.96c7.634,3.135,16.375-0.506,19.55-8.155c3.143-7.634-0.513-16.375-8.147-19.534
		c-8.965-3.705-18.154-9.494-27.104-18.524c-4.811-4.827-9.542-10.6-14.097-17.528c-1.828-2.774-3.656-5.726-5.437-8.885
		c-0.144-0.281-0.288-0.529-0.417-0.818c-5.116-9.206-9.895-20.094-14.129-32.877c-1.651-4.94-3.207-10.184-4.683-15.717
		c-1.476-5.565-2.871-11.402-4.121-17.585c-5.63-27.264-9.11-60.709-9.43-101.308c6.19-1.982,11.739-4.331,16.807-6.8
		c9.206,26.999,14.691,55.081,14.674,80.845c0,11.852-1.122,23.215-3.528,33.767c-0.898,3.969-1.957,7.827-3.207,11.556v0.024
		c4.025,14.442,8.901,27.328,14.562,38.442c4.956-7.658,8.982-15.797,12.14-24.28c6.992-18.684,9.976-38.859,9.976-59.508
		c-0.032-31.762-6.992-64.759-18.187-95.904c0.097-0.056,0.208-0.136,0.321-0.184c3.833-2.181,7.313-3.913,10.585-5.1
		c0.625-0.225,2.213-0.562,4.666-0.562c2.566,0,6.015,0.337,9.928,0.971c5.902,0.938,12.878,2.494,20.351,3.857
		c7.49,1.363,15.493,2.582,23.848,2.606c3.978,0,8.019-0.281,12.124-1.026c6.158-1.114,12.494-3.328,18.299-7.176
		c5.806-3.818,10.905-9.222,14.77-15.83c2.342-3.977,4.154-8.05,5.357-12.188c1.219-4.138,1.812-8.34,1.812-12.429
		C495.723,195.938,494.792,191.047,493.269,186.604z M234.881,162.796c-11.443,0-20.728-9.285-20.728-20.752
		c0-11.435,9.285-20.736,20.728-20.736c11.458,0,20.752,9.302,20.752,20.736C255.633,153.511,246.339,162.796,234.881,162.796z
		 M342.452,162.796c-11.475,0-20.745-9.285-20.745-20.752c0-11.435,9.27-20.736,20.745-20.736c11.467,0,20.752,9.302,20.752,20.736
		C363.204,153.511,353.919,162.796,342.452,162.796z" style="fill: rgb(255, 255, 255);"></path>
</g>
</svg>
